<mxfile host="www.draw.io" modified="2019-11-06T11:55:31.162Z" agent="Mozilla/5.0 (Macintosh; Intel Mac OS X 10_15_1) AppleWebKit/537.36 (KHTML, like Gecko) Chrome/78.0.3904.70 Safari/537.36" etag="ObD3TtviSbE7_PdTN_tu" version="12.2.0" type="github" pages="1">
  <diagram id="FyR0Bmk34T4gEIha5yWz" name="Page-1">
    <mxGraphModel dx="932" dy="632" grid="1" gridSize="10" guides="1" tooltips="1" connect="1" arrows="1" fold="1" page="1" pageScale="1" pageWidth="827" pageHeight="1169" math="0" shadow="0">
      <root>
        <mxCell id="0"/>
        <mxCell id="1" parent="0"/>
        <mxCell id="N29uWTeqLGkng7dpN7SW-1" value="server.js&lt;br&gt;" style="rounded=1;whiteSpace=wrap;html=1;" parent="1" vertex="1">
          <mxGeometry x="280" y="170" width="290" height="60" as="geometry"/>
        </mxCell>
        <mxCell id="N29uWTeqLGkng7dpN7SW-2" value="FRONTEND" style="rounded=1;whiteSpace=wrap;html=1;" parent="1" vertex="1">
          <mxGeometry x="325" y="20" width="185" height="60" as="geometry"/>
        </mxCell>
        <mxCell id="N29uWTeqLGkng7dpN7SW-3" value="" style="endArrow=classic;html=1;exitX=0.19;exitY=1.017;exitDx=0;exitDy=0;exitPerimeter=0;" parent="1" source="N29uWTeqLGkng7dpN7SW-1" edge="1">
          <mxGeometry width="50" height="50" relative="1" as="geometry">
            <mxPoint x="340" y="80" as="sourcePoint"/>
            <mxPoint x="335" y="320" as="targetPoint"/>
          </mxGeometry>
        </mxCell>
        <mxCell id="N29uWTeqLGkng7dpN7SW-4" value="" style="endArrow=classic;html=1;entryX=0.476;entryY=-0.017;entryDx=0;entryDy=0;entryPerimeter=0;" parent="1" target="N29uWTeqLGkng7dpN7SW-1" edge="1">
          <mxGeometry width="50" height="50" relative="1" as="geometry">
            <mxPoint x="417" y="80" as="sourcePoint"/>
            <mxPoint x="417" y="150" as="targetPoint"/>
          </mxGeometry>
        </mxCell>
        <mxCell id="N29uWTeqLGkng7dpN7SW-5" value="GET" style="text;html=1;strokeColor=none;fillColor=none;align=center;verticalAlign=middle;whiteSpace=wrap;rounded=0;" parent="1" vertex="1">
          <mxGeometry x="360" y="320" width="40" height="20" as="geometry"/>
        </mxCell>
        <mxCell id="N29uWTeqLGkng7dpN7SW-6" value="POST" style="text;html=1;strokeColor=none;fillColor=none;align=center;verticalAlign=middle;whiteSpace=wrap;rounded=0;" parent="1" vertex="1">
          <mxGeometry x="310" y="320" width="40" height="20" as="geometry"/>
        </mxCell>
        <mxCell id="N29uWTeqLGkng7dpN7SW-11" value="REQUEST" style="text;html=1;strokeColor=none;fillColor=none;align=center;verticalAlign=middle;whiteSpace=wrap;rounded=0;" parent="1" vertex="1">
          <mxGeometry x="430" y="110" width="40" height="20" as="geometry"/>
        </mxCell>
        <mxCell id="N29uWTeqLGkng7dpN7SW-12" value="" style="endArrow=none;dashed=1;html=1;entryX=0.5;entryY=1;entryDx=0;entryDy=0;" parent="1" target="N29uWTeqLGkng7dpN7SW-1" edge="1">
          <mxGeometry width="50" height="50" relative="1" as="geometry">
            <mxPoint x="425" y="350" as="sourcePoint"/>
            <mxPoint x="330" y="340" as="targetPoint"/>
          </mxGeometry>
        </mxCell>
        <mxCell id="N29uWTeqLGkng7dpN7SW-13" value="People Collection" style="text;html=1;strokeColor=none;fillColor=none;align=center;verticalAlign=middle;whiteSpace=wrap;rounded=0;" parent="1" vertex="1">
          <mxGeometry x="280" y="240" width="40" height="20" as="geometry"/>
        </mxCell>
        <mxCell id="N29uWTeqLGkng7dpN7SW-15" value="Topic Collection" style="text;html=1;strokeColor=none;fillColor=none;align=center;verticalAlign=middle;whiteSpace=wrap;rounded=0;" parent="1" vertex="1">
          <mxGeometry x="510" y="240" width="40" height="20" as="geometry"/>
        </mxCell>
        <mxCell id="N29uWTeqLGkng7dpN7SW-16" value="" style="endArrow=classic;html=1;exitX=0.19;exitY=1.017;exitDx=0;exitDy=0;exitPerimeter=0;" parent="1" edge="1">
          <mxGeometry width="50" height="50" relative="1" as="geometry">
            <mxPoint x="380.0999999999999" y="230.01999999999998" as="sourcePoint"/>
            <mxPoint x="380" y="319" as="targetPoint"/>
          </mxGeometry>
        </mxCell>
        <mxCell id="N29uWTeqLGkng7dpN7SW-17" value="" style="endArrow=classic;html=1;exitX=0.19;exitY=1.017;exitDx=0;exitDy=0;exitPerimeter=0;" parent="1" edge="1">
          <mxGeometry width="50" height="50" relative="1" as="geometry">
            <mxPoint x="490.0999999999999" y="230.01999999999998" as="sourcePoint"/>
            <mxPoint x="490" y="319" as="targetPoint"/>
          </mxGeometry>
        </mxCell>
        <mxCell id="N29uWTeqLGkng7dpN7SW-18" value="" style="endArrow=classic;html=1;exitX=0.19;exitY=1.017;exitDx=0;exitDy=0;exitPerimeter=0;" parent="1" edge="1">
          <mxGeometry width="50" height="50" relative="1" as="geometry">
            <mxPoint x="449.5999999999999" y="230.01999999999998" as="sourcePoint"/>
            <mxPoint x="449.5" y="319" as="targetPoint"/>
          </mxGeometry>
        </mxCell>
        <mxCell id="N29uWTeqLGkng7dpN7SW-22" value="GET" style="text;html=1;strokeColor=none;fillColor=none;align=center;verticalAlign=middle;whiteSpace=wrap;rounded=0;" parent="1" vertex="1">
          <mxGeometry x="430" y="320" width="40" height="20" as="geometry"/>
        </mxCell>
        <mxCell id="N29uWTeqLGkng7dpN7SW-23" value="POST" style="text;html=1;strokeColor=none;fillColor=none;align=center;verticalAlign=middle;whiteSpace=wrap;rounded=0;" parent="1" vertex="1">
          <mxGeometry x="470" y="320" width="40" height="20" as="geometry"/>
        </mxCell>
        <mxCell id="N29uWTeqLGkng7dpN7SW-24" value="/people" style="text;html=1;strokeColor=none;fillColor=none;align=center;verticalAlign=middle;whiteSpace=wrap;rounded=0;" parent="1" vertex="1">
          <mxGeometry x="340" y="340" width="40" height="20" as="geometry"/>
        </mxCell>
        <mxCell id="N29uWTeqLGkng7dpN7SW-25" value="/topics" style="text;html=1;strokeColor=none;fillColor=none;align=center;verticalAlign=middle;whiteSpace=wrap;rounded=0;" parent="1" vertex="1">
          <mxGeometry x="450" y="340" width="40" height="20" as="geometry"/>
        </mxCell>
        <mxCell id="N29uWTeqLGkng7dpN7SW-28" value="" style="edgeStyle=orthogonalEdgeStyle;rounded=0;orthogonalLoop=1;jettySize=auto;html=1;" parent="1" source="N29uWTeqLGkng7dpN7SW-27" edge="1">
          <mxGeometry relative="1" as="geometry">
            <mxPoint x="300" y="320" as="targetPoint"/>
          </mxGeometry>
        </mxCell>
        <mxCell id="N29uWTeqLGkng7dpN7SW-27" value="Name and Topic sent in body" style="rounded=1;whiteSpace=wrap;html=1;" parent="1" vertex="1">
          <mxGeometry x="170" y="310" width="60" height="60" as="geometry"/>
        </mxCell>
        <mxCell id="N29uWTeqLGkng7dpN7SW-30" style="edgeStyle=orthogonalEdgeStyle;rounded=0;orthogonalLoop=1;jettySize=auto;html=1;" parent="1" source="N29uWTeqLGkng7dpN7SW-29" edge="1">
          <mxGeometry relative="1" as="geometry">
            <mxPoint x="510" y="310" as="targetPoint"/>
          </mxGeometry>
        </mxCell>
        <mxCell id="N29uWTeqLGkng7dpN7SW-29" value="Topic and Category sent in body" style="rounded=1;whiteSpace=wrap;html=1;" parent="1" vertex="1">
          <mxGeometry x="570" y="280" width="70" height="60" as="geometry"/>
        </mxCell>
        <mxCell id="N29uWTeqLGkng7dpN7SW-32" value="handlers" style="rounded=1;whiteSpace=wrap;html=1;" parent="1" vertex="1">
          <mxGeometry x="290" y="370" width="270" height="60" as="geometry"/>
        </mxCell>
        <mxCell id="N29uWTeqLGkng7dpN7SW-33" value="" style="endArrow=classic;html=1;" parent="1" edge="1">
          <mxGeometry width="50" height="50" relative="1" as="geometry">
            <mxPoint x="339.5" y="430" as="sourcePoint"/>
            <mxPoint x="339.5" y="490" as="targetPoint"/>
          </mxGeometry>
        </mxCell>
        <mxCell id="N29uWTeqLGkng7dpN7SW-34" value="" style="endArrow=classic;html=1;" parent="1" edge="1">
          <mxGeometry width="50" height="50" relative="1" as="geometry">
            <mxPoint x="379" y="430" as="sourcePoint"/>
            <mxPoint x="379" y="490" as="targetPoint"/>
          </mxGeometry>
        </mxCell>
        <mxCell id="N29uWTeqLGkng7dpN7SW-35" value="" style="endArrow=classic;html=1;" parent="1" edge="1">
          <mxGeometry width="50" height="50" relative="1" as="geometry">
            <mxPoint x="450" y="430" as="sourcePoint"/>
            <mxPoint x="450" y="490" as="targetPoint"/>
          </mxGeometry>
        </mxCell>
        <mxCell id="N29uWTeqLGkng7dpN7SW-36" value="" style="endArrow=classic;html=1;" parent="1" edge="1">
          <mxGeometry width="50" height="50" relative="1" as="geometry">
            <mxPoint x="490" y="430" as="sourcePoint"/>
            <mxPoint x="490" y="490" as="targetPoint"/>
          </mxGeometry>
        </mxCell>
        <mxCell id="N29uWTeqLGkng7dpN7SW-37" value="handlers/addPerson.js&lt;br&gt;" style="text;html=1;strokeColor=none;fillColor=none;align=center;verticalAlign=middle;whiteSpace=wrap;rounded=0;" parent="1" vertex="1">
          <mxGeometry x="250" y="470" width="40" height="20" as="geometry"/>
        </mxCell>
        <mxCell id="N29uWTeqLGkng7dpN7SW-38" value="handlers/getPeople.js" style="text;html=1;strokeColor=none;fillColor=none;align=center;verticalAlign=middle;whiteSpace=wrap;rounded=0;" parent="1" vertex="1">
          <mxGeometry x="330" y="500" width="40" height="20" as="geometry"/>
        </mxCell>
        <mxCell id="N29uWTeqLGkng7dpN7SW-39" value="handlers/getTopics.js" style="text;html=1;strokeColor=none;fillColor=none;align=center;verticalAlign=middle;whiteSpace=wrap;rounded=0;" parent="1" vertex="1">
          <mxGeometry x="450" y="500" width="40" height="20" as="geometry"/>
        </mxCell>
        <mxCell id="N29uWTeqLGkng7dpN7SW-40" value="handlers/addTopic.js" style="text;html=1;strokeColor=none;fillColor=none;align=center;verticalAlign=middle;whiteSpace=wrap;rounded=0;" parent="1" vertex="1">
          <mxGeometry x="530" y="460" width="40" height="20" as="geometry"/>
        </mxCell>
        <mxCell id="N29uWTeqLGkng7dpN7SW-42" value="queries" style="rounded=1;whiteSpace=wrap;html=1;" parent="1" vertex="1">
          <mxGeometry x="270" y="540" width="320" height="60" as="geometry"/>
        </mxCell>
        <mxCell id="N29uWTeqLGkng7dpN7SW-43" value="" style="endArrow=classic;html=1;" parent="1" edge="1">
          <mxGeometry width="50" height="50" relative="1" as="geometry">
            <mxPoint x="339.5" y="600" as="sourcePoint"/>
            <mxPoint x="340" y="660" as="targetPoint"/>
          </mxGeometry>
        </mxCell>
        <mxCell id="N29uWTeqLGkng7dpN7SW-44" value="createPerson" style="text;html=1;strokeColor=none;fillColor=none;align=center;verticalAlign=middle;whiteSpace=wrap;rounded=0;" parent="1" vertex="1">
          <mxGeometry x="280" y="650" width="40" height="20" as="geometry"/>
        </mxCell>
        <mxCell id="N29uWTeqLGkng7dpN7SW-45" value="" style="endArrow=classic;html=1;exitX=0.569;exitY=1.033;exitDx=0;exitDy=0;exitPerimeter=0;" parent="1" source="N29uWTeqLGkng7dpN7SW-42" edge="1">
          <mxGeometry width="50" height="50" relative="1" as="geometry">
            <mxPoint x="349.5" y="610" as="sourcePoint"/>
            <mxPoint x="452" y="670" as="targetPoint"/>
          </mxGeometry>
        </mxCell>
        <mxCell id="N29uWTeqLGkng7dpN7SW-46" value="readTopics" style="text;html=1;strokeColor=none;fillColor=none;align=center;verticalAlign=middle;whiteSpace=wrap;rounded=0;" parent="1" vertex="1">
          <mxGeometry x="430" y="670" width="40" height="20" as="geometry"/>
        </mxCell>
        <mxCell id="N29uWTeqLGkng7dpN7SW-47" value="" style="endArrow=classic;html=1;exitX=0.325;exitY=1;exitDx=0;exitDy=0;exitPerimeter=0;" parent="1" source="N29uWTeqLGkng7dpN7SW-42" edge="1">
          <mxGeometry width="50" height="50" relative="1" as="geometry">
            <mxPoint x="359.5" y="620" as="sourcePoint"/>
            <mxPoint x="374" y="670" as="targetPoint"/>
          </mxGeometry>
        </mxCell>
        <mxCell id="N29uWTeqLGkng7dpN7SW-48" value="readPeople" style="text;html=1;strokeColor=none;fillColor=none;align=center;verticalAlign=middle;whiteSpace=wrap;rounded=0;" parent="1" vertex="1">
          <mxGeometry x="350" y="670" width="40" height="20" as="geometry"/>
        </mxCell>
        <mxCell id="N29uWTeqLGkng7dpN7SW-49" value="" style="endArrow=classic;html=1;" parent="1" edge="1">
          <mxGeometry width="50" height="50" relative="1" as="geometry">
            <mxPoint x="492" y="600" as="sourcePoint"/>
            <mxPoint x="492" y="670" as="targetPoint"/>
          </mxGeometry>
        </mxCell>
        <mxCell id="N29uWTeqLGkng7dpN7SW-50" value="createTopic" style="text;html=1;strokeColor=none;fillColor=none;align=center;verticalAlign=middle;whiteSpace=wrap;rounded=0;" parent="1" vertex="1">
          <mxGeometry x="510" y="660" width="40" height="20" as="geometry"/>
        </mxCell>
        <mxCell id="N29uWTeqLGkng7dpN7SW-61" value="People Collection" style="rounded=1;whiteSpace=wrap;html=1;" parent="1" vertex="1">
          <mxGeometry x="273" y="730" width="127" height="60" as="geometry"/>
        </mxCell>
        <mxCell id="N29uWTeqLGkng7dpN7SW-62" value="Topic Collection" style="rounded=1;whiteSpace=wrap;html=1;" parent="1" vertex="1">
          <mxGeometry x="433" y="730" width="127" height="60" as="geometry"/>
        </mxCell>
        <mxCell id="N29uWTeqLGkng7dpN7SW-63" value="mongo database" style="rounded=0;whiteSpace=wrap;html=1;" parent="1" vertex="1">
          <mxGeometry x="225" y="700" width="380" height="20" as="geometry"/>
        </mxCell>
        <mxCell id="N29uWTeqLGkng7dpN7SW-64" value="" style="endArrow=classic;html=1;" parent="1" edge="1">
          <mxGeometry width="50" height="50" relative="1" as="geometry">
            <mxPoint x="420" y="800" as="sourcePoint"/>
            <mxPoint x="520" y="40" as="targetPoint"/>
            <Array as="points">
              <mxPoint x="420" y="900"/>
              <mxPoint x="670" y="900"/>
              <mxPoint x="670" y="200"/>
              <mxPoint x="570" y="200"/>
              <mxPoint x="570" y="40"/>
            </Array>
          </mxGeometry>
        </mxCell>
        <mxCell id="Ou9jKTDlDs-_OO53vM_s-1" value="SCHEMA&lt;br&gt;people:&lt;br&gt;{&lt;br&gt;_id: ObjectID(...)&lt;br&gt;name: Lyndsey Scott&lt;br&gt;job: Graduate Software Engineer&lt;br&gt;location: London&lt;br&gt;topics: [ObjectID(...), ObjectID(...)]&lt;br&gt;}" style="rounded=1;whiteSpace=wrap;html=1;" vertex="1" parent="1">
          <mxGeometry x="10" y="160" width="210" height="140" as="geometry"/>
        </mxCell>
        <mxCell id="Ou9jKTDlDs-_OO53vM_s-2" value="SCHEMA&lt;br&gt;topics:&lt;br&gt;{&lt;br&gt;_id: ObjectID(...)&lt;br&gt;topic: food&lt;br&gt;category: non-work&lt;br&gt;people: [ObjectID(...), ObjectID(...)]&lt;br&gt;}" style="rounded=1;whiteSpace=wrap;html=1;" vertex="1" parent="1">
          <mxGeometry x="10" y="10" width="210" height="140" as="geometry"/>
        </mxCell>
        <mxCell id="Ou9jKTDlDs-_OO53vM_s-3" value="" style="endArrow=classic;html=1;exitX=0;exitY=0.5;exitDx=0;exitDy=0;" edge="1" parent="1" source="N29uWTeqLGkng7dpN7SW-42">
          <mxGeometry width="50" height="50" relative="1" as="geometry">
            <mxPoint x="120" y="600" as="sourcePoint"/>
            <mxPoint x="210" y="570" as="targetPoint"/>
          </mxGeometry>
        </mxCell>
        <mxCell id="Ou9jKTDlDs-_OO53vM_s-4" value="VALIDATION" style="text;html=1;strokeColor=none;fillColor=none;align=center;verticalAlign=middle;whiteSpace=wrap;rounded=0;" vertex="1" parent="1">
          <mxGeometry x="185" y="540" width="40" height="20" as="geometry"/>
        </mxCell>
        <mxCell id="Ou9jKTDlDs-_OO53vM_s-5" value="PEOPLE:&lt;br&gt;person name exists in DB?" style="rounded=1;whiteSpace=wrap;html=1;" vertex="1" parent="1">
          <mxGeometry x="30" y="510" width="120" height="80" as="geometry"/>
        </mxCell>
        <mxCell id="Ou9jKTDlDs-_OO53vM_s-6" value="TOPIC:&lt;br&gt;topic title not empty&lt;br&gt;topic category not empty&lt;br&gt;topic name: not a duplicate&lt;br&gt;topic name: &amp;gt;2 chars, includes some letters&amp;nbsp;" style="rounded=1;whiteSpace=wrap;html=1;" vertex="1" parent="1">
          <mxGeometry x="30" y="600" width="120" height="160" as="geometry"/>
        </mxCell>
      </root>
    </mxGraphModel>
  </diagram>
</mxfile>
